<?xml version="1.0" standalone="no"?>
<!DOCTYPE svg PUBLIC "-//W3C//DTD SVG 20010904//EN"
 "http://www.w3.org/TR/2001/REC-SVG-20010904/DTD/svg10.dtd">
<svg version="1.0" xmlns="http://www.w3.org/2000/svg"
 width="285.000000pt" height="299.000000pt" viewBox="0 0 285.000000 299.000000"
 preserveAspectRatio="xMidYMid meet">

<g transform="translate(0.000000,299.000000) scale(0.100000,-0.100000)"
fill="#000000" stroke="none">
<path d="M0 1495 l0 -1495 1425 0 1425 0 0 1495 0 1495 -1425 0 -1425 0 0
-1495z m1320 1180 l0 -85 -110 0 -110 0 0 -35 0 -35 70 0 70 0 0 -40 0 -40 40
0 40 0 0 40 0 40 40 0 40 0 0 80 0 80 40 0 c39 0 40 1 40 35 0 35 0 35 45 35
45 0 45 0 45 -35 0 -34 1 -35 40 -35 39 0 40 1 40 35 0 31 3 35 28 35 15 0 38
3 52 5 14 3 19 3 13 -1 -7 -3 -13 -21 -13 -40 0 -33 1 -34 40 -34 38 0 40 2
40 30 0 34 -1 34 113 -17 55 -25 57 -27 57 -64 l0 -39 -85 0 -85 0 0 -40 0
-40 -40 0 c-39 0 -40 -1 -40 -35 0 -34 1 -35 40 -35 l40 0 0 -85 c0 -47 -4
-85 -9 -85 -4 0 -22 5 -40 11 -26 9 -31 16 -31 42 l0 30 -125 -7 -125 -6 0 50
0 50 40 0 40 0 0 115 0 115 -35 0 -35 0 0 -80 0 -80 -45 0 -45 0 0 -40 0 -40
-40 0 c-39 0 -40 -1 -40 -35 0 -34 1 -35 40 -35 43 0 57 -24 20 -34 -11 -3
-29 -9 -40 -12 -15 -4 -20 -1 -20 15 0 18 -6 21 -41 21 l-41 0 4 -40 4 -40
-43 0 c-24 0 -43 -2 -43 -5 0 -3 21 -47 46 -98 142 -281 367 -507 636 -637 45
-22 92 -40 105 -40 20 0 23 5 23 43 1 61 28 111 63 115 24 3 27 8 27 38 0 24
-5 34 -15 34 -12 0 -15 17 -15 93 0 91 -13 157 -44 229 -9 21 -16 64 -16 98
l0 60 -40 0 -40 0 0 40 0 40 40 0 c39 0 40 1 40 35 0 34 -1 35 -40 35 l-40 0
0 45 0 45 39 0 c39 0 40 1 43 38 3 36 4 37 46 40 42 3 42 3 42 43 0 21 3 39 6
39 4 0 22 -9 40 -21 l34 -21 0 -104 0 -104 -40 0 c-39 0 -40 -1 -40 -35 0 -34
1 -35 40 -35 l40 0 0 -40 0 -40 40 0 40 0 0 80 0 80 45 0 c40 0 47 -4 70 -37
31 -47 31 -53 0 -53 -24 0 -25 -2 -25 -75 l0 -75 -85 0 -85 0 0 -40 0 -40 40
0 40 0 0 -40 0 -40 -80 0 -80 0 0 -40 0 -40 120 0 120 0 0 40 0 40 40 0 40 0
0 80 c0 78 1 80 24 80 25 0 33 -15 51 -95 38 -171 12 -447 -55 -573 l-19 -37
-1 193 0 192 -120 0 -120 0 0 -115 0 -115 85 0 85 0 0 -80 c0 -93 -13 -86 138
-69 97 10 207 34 292 64 l45 15 -25 -20 c-73 -59 -324 -162 -472 -194 -35 -8
-53 -14 -40 -15 17 -1 22 -7 22 -29 0 -36 -16 -52 -52 -52 -25 0 -28 3 -28 34
0 25 5 36 18 38 9 2 -59 2 -153 0 -128 -3 -193 0 -265 12 -326 57 -653 256
-851 519 -112 148 -213 396 -220 540 -3 53 17 82 132 193 84 79 136 117 227
163 59 30 63 30 57 12 -6 -19 -2 -21 44 -21 50 0 51 1 51 30 0 32 22 48 68 49
21 1 22 -2 22 -84z m930 -236 c0 -5 -7 -9 -15 -9 -9 0 -15 9 -15 21 0 18 2 19
15 9 8 -7 15 -16 15 -21z m145 -229 c3 -5 1 -10 -4 -10 -6 0 -11 5 -11 10 0 6
2 10 4 10 3 0 8 -4 11 -10z m-1709 -95 c21 -50 18 -55 -26 -55 -44 0 -44 0
-29 53 13 47 35 48 55 2z m-56 -165 l0 -40 40 0 40 0 0 40 c0 53 23 53 50 0
11 -21 20 -42 20 -45 0 -3 -16 -5 -35 -5 l-35 0 0 -75 0 -75 -40 0 -40 0 0
-40 c0 -40 0 -40 39 -40 39 0 40 -1 43 -37 3 -37 4 -38 46 -41 l42 -3 0 -115
0 -114 120 0 120 0 0 35 0 35 109 0 c60 0 116 -3 125 -6 13 -5 16 -22 16 -80
l0 -74 -45 0 -45 0 0 40 0 40 -80 0 -80 0 0 -35 c0 -34 1 -35 40 -35 l40 0 0
-40 0 -40 125 0 125 0 0 -80 0 -80 40 0 40 0 0 80 0 80 40 0 40 0 0 -85 0 -85
-40 0 c-39 0 -40 -1 -40 -35 l0 -35 80 0 80 0 0 80 0 80 40 0 c39 0 40 1 40
35 0 34 -1 35 -40 35 l-40 0 0 45 c0 50 -2 49 72 35 110 -22 98 -7 98 -125 l0
-105 80 0 80 0 0 -28 c0 -27 -4 -30 -87 -55 -113 -34 -196 -47 -306 -47 -80 0
-89 2 -94 20 -5 18 -14 20 -89 20 l-84 0 0 80 0 80 -34 0 c-33 0 -35 -2 -38
-37 -3 -37 -4 -38 -51 -43 -26 -3 -53 -2 -60 2 -8 5 -7 8 6 8 15 0 17 10 17
75 l0 75 -40 0 -40 0 0 40 0 40 -114 0 -114 0 -35 48 c-19 26 -51 80 -71 120
-34 67 -35 72 -16 72 17 0 20 7 20 40 0 39 -1 40 -34 40 l-34 0 -17 73 c-19
80 -31 260 -21 301 10 40 26 31 26 -14z m246 -182 c84 -107 81 -98 35 -98
l-41 0 0 40 0 40 -40 0 -40 0 0 40 c0 60 27 53 86 -22z m1429 -83 c0 -40 0
-40 -42 -43 l-43 -3 0 46 0 46 43 -3 c42 -3 42 -3 42 -43z m-1265 -135 l0 -40
-40 0 -40 0 0 -40 0 -40 -45 0 -45 0 0 80 0 80 85 0 85 0 0 -40z m435 -221
c41 -15 55 -26 55 -40 0 -17 -8 -19 -80 -19 l-80 0 0 46 c0 53 -1 53 105 13z
m635 -164 l0 -84 -37 -26 c-21 -14 -41 -25 -45 -25 -5 0 -8 47 -8 104 l0 105
33 4 c17 2 38 5 45 5 9 2 12 -21 12 -83z m-170 -10 l0 -45 -40 0 -40 0 0 45 0
45 40 0 40 0 0 -45z m-1491 -494 c98 -70 94 -262 -7 -324 l-25 -15 22 -12 c18
-9 27 -8 46 4 23 15 25 15 39 -13 14 -26 14 -30 -4 -46 -10 -9 -37 -19 -59
-22 -38 -5 -44 -3 -80 34 -21 22 -53 46 -73 52 -93 31 -146 165 -103 262 20
46 34 63 75 88 45 29 122 25 169 -8z m181 -96 c0 -120 1 -127 25 -150 31 -31
49 -31 80 0 24 23 25 30 25 150 l0 125 40 0 40 0 0 -132 c0 -112 -3 -138 -20
-174 -49 -100 -201 -100 -250 0 -17 36 -20 62 -20 174 l0 132 40 0 40 0 0
-125z m340 -60 l0 -185 -40 0 -40 0 0 185 0 185 40 0 40 0 0 -185z m268 171
c15 -8 34 -22 44 -32 15 -18 15 -21 -7 -52 -14 -20 -26 -29 -30 -23 -3 6 -20
18 -37 27 -58 30 -113 -17 -113 -97 0 -80 73 -124 132 -81 l27 20 23 -31 c26
-36 21 -48 -38 -78 -73 -37 -151 -16 -197 54 -23 35 -27 51 -27 117 0 66 4 82
26 116 44 67 132 93 197 60z m182 -63 l0 -78 56 78 56 77 49 0 49 0 -55 -73
c-30 -41 -55 -78 -55 -82 0 -5 25 -52 55 -106 30 -53 55 -100 55 -103 0 -3
-22 -6 -48 -6 -44 0 -50 3 -61 28 -7 15 -24 46 -37 70 l-25 43 -20 -25 c-12
-16 -19 -40 -19 -70 l0 -46 -40 0 -40 0 0 185 0 185 40 0 40 0 0 -77z m580 57
c0 -17 -7 -20 -50 -20 l-50 0 0 -165 c0 -158 -1 -165 -20 -165 -19 0 -20 7
-20 165 l0 165 -50 0 c-43 0 -50 3 -50 20 0 19 7 20 120 20 113 0 120 -1 120
-20z m220 -156 c36 -97 67 -181 69 -186 2 -5 -7 -8 -20 -6 -16 2 -26 14 -37
46 l-14 42 -82 0 -83 0 -17 -45 c-13 -33 -23 -45 -38 -45 -11 0 -18 4 -16 9 2
5 32 88 68 185 86 234 84 234 170 0z m310 158 c38 -21 44 -30 31 -51 -7 -12
-14 -10 -36 8 -78 61 -185 -11 -185 -124 0 -89 57 -150 133 -141 56 6 67 20
67 82 0 41 4 54 15 54 12 0 15 -14 15 -69 0 -64 -2 -70 -27 -86 -69 -45 -164
-23 -211 48 -23 34 -27 51 -27 112 0 60 4 78 26 111 46 70 129 93 199 56z
m-1120 -452 c41 -85 31 -120 -35 -120 l-45 0 0 71 0 70 36 -3 c21 -2 40 -10
44 -18z m314 -1 c54 -43 20 -119 -54 -119 l-40 0 0 70 0 70 34 0 c19 0 45 -9
60 -21z m126 11 c0 -5 -11 -10 -25 -10 -24 0 -25 -3 -25 -60 0 -33 -4 -60 -10
-60 -6 0 -10 27 -10 60 0 57 -1 60 -25 60 -14 0 -25 5 -25 10 0 6 27 10 60 10
33 0 60 -4 60 -10z m85 -3 c11 -9 14 -16 7 -21 -6 -3 -13 -2 -17 4 -3 5 -17
10 -31 10 -38 0 -29 -26 16 -44 38 -15 41 -15 60 4 23 23 33 24 61 10 22 -12
26 -59 7 -78 -17 -17 -53 -15 -69 4 -11 14 -13 14 -21 0 -11 -20 -81 -21 -97
-2 -8 10 -9 16 -1 21 5 3 10 2 10 -3 0 -15 41 -22 62 -11 24 13 16 26 -28 44
-39 16 -52 39 -34 60 15 19 50 19 75 2z m145 -63 c0 -36 -4 -64 -10 -64 -6 0
-10 30 -10 71 0 44 4 68 10 64 6 -3 10 -35 10 -71z m141 36 c10 0 19 -4 19
-10 0 -5 -9 -10 -20 -10 -15 0 -20 -7 -20 -28 0 -37 8 -44 32 -31 16 9 19 8
16 -3 -3 -7 -16 -13 -29 -13 -20 0 -25 6 -30 40 l-6 40 -2 -41 -1 -42 -42 2
-43 1 -1 50 c-1 34 0 38 3 13 5 -45 26 -66 48 -48 8 7 15 24 15 38 0 25 32 67
38 51 2 -5 12 -9 23 -9z m-753 -41 l18 -41 19 41 c18 40 34 48 43 21 3 -7 0
-10 -5 -7 -5 3 -23 -21 -38 -54 -23 -47 -33 -59 -49 -57 -11 2 -21 9 -24 17
-3 9 2 11 17 6 28 -8 28 17 1 70 -23 46 -23 45 -10 45 6 0 19 -19 28 -41z
m800 -11 l-1 -53 -6 45 c-6 43 -5 60 5 60 2 0 3 -24 2 -52z m97 32 c24 -27 13
-68 -22 -76 -33 -9 -57 6 -61 38 -6 50 49 76 83 38z m93 12 c7 -1 12 -16 12
-37 0 -19 3 -34 8 -33 4 1 18 -2 31 -6 39 -13 48 10 12 29 -38 19 -39 50 -2
50 14 0 26 -5 28 -11 2 -7 -6 -10 -24 -7 -25 4 -26 3 -11 -9 9 -7 24 -18 34
-24 11 -6 15 -17 11 -27 -5 -13 -17 -17 -52 -15 l-45 1 0 39 c0 30 -4 38 -18
38 -26 0 -42 -20 -44 -54 -1 -24 -3 -20 -7 14 -4 25 -6 47 -5 50 2 5 38 6 72
2z"/>
<path d="M1650 2595 l0 -75 40 0 40 0 0 75 0 75 -40 0 -40 0 0 -75z"/>
<path d="M1129 2368 c12 -49 17 -57 19 -35 3 24 7 27 43 27 38 0 39 1 39 35
l0 35 -59 0 -59 0 17 -62z"/>
<path d="M1980 2395 c0 -34 1 -35 40 -35 39 0 40 1 40 35 0 34 -1 35 -40 35
-39 0 -40 -1 -40 -35z"/>
<path d="M2060 2160 l0 -40 40 0 40 0 0 40 0 40 -40 0 -40 0 0 -40z"/>
<path d="M317 590 c-74 -59 -44 -190 43 -190 33 0 68 36 76 77 9 46 -12 101
-46 118 -37 19 -42 19 -73 -5z"/>
<path d="M2105 558 c-15 -46 -30 -89 -33 -95 -3 -10 14 -13 63 -13 76 0 73
-13 26 115 l-27 76 -29 -83z"/>
<path d="M1350 200 c0 -23 31 -27 49 -7 14 17 4 27 -26 27 -16 0 -23 -6 -23
-20z"/>
<path d="M1350 140 c0 -34 23 -40 56 -15 19 15 19 15 0 30 -33 25 -56 19 -56
-15z"/>
<path d="M1650 164 l0 -56 27 7 c38 9 53 23 53 51 0 29 -25 54 -56 54 -23 0
-24 -3 -24 -56z"/>
<path d="M1973 164 c-8 -22 10 -49 32 -49 22 0 40 27 32 49 -8 21 -56 21 -64
0z"/>
<path d="M2301 167 c-22 -27 10 -64 45 -50 23 9 14 57 -12 61 -11 2 -26 -3
-33 -11z"/>
</g>
</svg>
